# xmcd CD database file
#
# Track frame offsets:
#	150
#	7524
#	32187
#	47586
#	60707
#	84658
#	110164
#	128514
#	141204
#
# Disc length: 2230 seconds
#
# Revision: 0
# Processed by: cddbd v1.5.1PL0 Copyright (c) Steve Scherf et al.
# Submitted via: CDex 1.51
#
DISCID=6e08b409
DTITLE=Area51 - Ankh
DYEAR=2005
DGENRE=Melodic Power Metal
TTITLE0=Invitation
TTITLE1=Chaotic Phase
TTITLE2=Extend Wings
TTITLE3=Domain
TTITLE4=Fate
TTITLE5=Sky Above Clouds
TTITLE6=Alea Jacta Est
TTITLE7=Ankh
TTITLE8=The Last
EXTD=YEAR: 2005
EXTT0=
EXTT1=
EXTT2=
EXTT3=
EXTT4=
EXTT5=
EXTT6=
EXTT7=
EXTT8=
PLAYORDER=
